# xmcd CD database file
#
# Track frame offsets:
#	150
#	13624
#	26923
#	39557
#	53819
#	72117
#	85034
#	96433
#	108297
#	120548
#	131394
#	146902
#	161920
#	179676
#
# Disc length: 2563 seconds
#
# Revision: 0
# Processed by: cddbd v1.5.1PL2 Copyright (c) Steve Scherf et al.
# Submitted via: CDex 1.51
#
DISCID=c30a010e
DTITLE=Various Artist - The Best of Country CD3
DYEAR=1900
DGENRE=Country
TTITLE0=Mickey Gilley - Stand By Me
TTITLE1=Lynn Anderson - Top Of The World
TTITLE2=Charlie Rich - The Most Beautiful Girl
TTITLE3=Juice Newton - Love's Been A Little Bit Hard On Me
TTITLE4=Michael Johnson - I'll Always Love You
TTITLE5=Faron Young - It's Four In The Morning
TTITLE6=New Seeker - I'd Like To Teach The World To Sing
TTITLE7=Lynn Anderson - You Don't Have To Say You Love Me
TTITLE8=BJ Thomas - Hooked On A Feeling
TTITLE9=Charlie Rich - There Won't Be Anymore
TTITLE10=Juice Newton - Queens Of Heart
TTITLE11=Lynn Anderson - We've Just Begun
TTITLE12=Michael Johnson - Almost Like Being In Love
TTITLE13=Lynn Anderson - It Must Be Love
EXTD=
EXTT0=
EXTT1=
EXTT2=
EXTT3=
EXTT4=
EXTT5=
EXTT6=
EXTT7=
EXTT8=
EXTT9=
EXTT10=
EXTT11=
EXTT12=
EXTT13=
PLAYORDER=
